<svg
        width="40"
        height="40"
        viewBox="0 0 70 70"
        fill="none"
        xmlns="http://www.w3.org/2000/svg"
        className="hover:brightness-105"
      >
        <path
          d="M8.95335 0H21.9768C26.9218 0 30.9302 4.945 30.9302 8.95335V21.9768C30.9302 26.9218 26.9212 30.9301 21.9768 30.9301H8.95335C4.00836 30.9301 0 25.9852 0 21.9768V8.95335C0 4.00836 4.00898 0 8.95335 0Z"
          fill="#9CC2D6"
        />
        <path
          d="M48.0227 39.0708H61.0461C65.9911 39.0708 69.9995 44.0158 69.9995 48.0242V61.0476C69.9995 65.9926 65.9905 70.001 61.0461 70.001H48.0227C43.0777 70.001 39.0693 65.0559 39.0693 61.0476V48.0242C39.0693 43.0792 43.0783 39.0708 48.0227 39.0708Z"
          fill="#9CC2D6"
        />
        <path
          d="M8.95335 39.0708H21.9768C26.9218 39.0708 30.9302 44.0158 30.9302 48.0242V61.0476C30.9302 65.9926 26.9212 70.001 21.9768 70.001H8.95335C4.00836 70.001 0 65.0559 0 61.0476V48.0242C0 43.0792 4.00898 39.0708 8.95335 39.0708Z"
          fill="#9CC2D6"
        />
        <path
          d="M69.9999 15.4661C69.9999 24.0074 63.0756 30.9311 54.5343 30.9311C45.9937 30.9311 39.0693 24.0074 39.0693 15.4661C39.0693 6.92484 45.9937 0.000488281 54.5343 0.000488281C63.0756 0.000488281 69.9999 6.92484 69.9999 15.4661Z"
          fill="#9CC2D6"
        />
      </svg>